<?xml version="1.0" standalone="no"?>
<!DOCTYPE svg PUBLIC "-//W3C//DTD SVG 20010904//EN"
 "http://www.w3.org/TR/2001/REC-SVG-20010904/DTD/svg10.dtd">
<svg version="1.0" xmlns="http://www.w3.org/2000/svg"
 width="180.000000pt" height="180.000000pt" viewBox="0 0 180.000000 180.000000"
 preserveAspectRatio="xMidYMid meet">
<metadata>
Created by potrace 1.11, written by Peter Selinger 2001-2013
</metadata>
<g transform="translate(0.000000,180.000000) scale(0.100000,-0.100000)"
fill="#000000" stroke="none">
<path d="M840 1663 c-41 -17 -73 -51 -118 -126 -48 -81 -93 -157 -349 -592
-71 -121 -167 -284 -213 -362 -47 -79 -95 -160 -107 -180 -16 -27 -23 -54 -23
-93 0 -66 22 -112 74 -154 30 -25 48 -31 99 -34 59 -4 69 -1 163 46 199 101
312 127 549 127 156 -1 192 -4 270 -24 109 -28 219 -71 301 -117 49 -28 72
-34 118 -34 31 0 70 7 85 14 38 20 89 80 97 114 3 15 8 33 10 40 9 29 -18 105
-60 169 -24 37 -84 138 -133 223 -49 85 -119 205 -155 265 -35 61 -124 211
-196 335 -225 387 -222 383 -330 387 -37 1 -74 0 -82 -4z m143 -113 c38 -43
34 -73 -22 -168 l-49 -83 -46 76 c-63 103 -62 164 2 200 37 21 81 11 115 -25z
m-160 -280 l36 -65 -33 -55 c-18 -30 -70 -118 -115 -195 -46 -77 -106 -179
-134 -227 l-52 -87 -84 -26 c-46 -15 -109 -38 -139 -51 -30 -13 -56 -23 -58
-22 -1 2 19 39 45 83 27 44 88 148 136 230 88 150 105 178 246 416 l74 126 21
-31 c11 -17 37 -60 57 -96z m407 -130 c79 -135 190 -324 246 -420 57 -96 102
-176 100 -178 -2 -2 -18 4 -35 12 -17 9 -77 32 -132 51 -56 18 -108 39 -115
47 -11 11 -65 100 -164 273 -62 108 -153 262 -160 270 -5 6 17 52 48 107 32
53 60 94 63 90 3 -4 70 -117 149 -252z m-249 -139 c35 -60 68 -107 73 -104 5
4 6 2 3 -4 -3 -5 21 -56 54 -113 33 -56 58 -104 56 -106 -2 -2 -61 1 -130 6
-87 7 -167 7 -253 0 -70 -5 -129 -10 -131 -10 -5 0 28 57 122 215 39 66 84
144 100 173 15 28 32 52 36 52 4 0 36 -49 70 -109z m197 -434 c35 -8 64 -16
66 -18 8 -10 128 -212 132 -224 4 -9 -21 -5 -88 16 -101 32 -280 59 -386 59
-99 0 -254 -25 -364 -58 -54 -16 -98 -28 -98 -26 0 9 134 230 143 235 5 4 44
12 86 19 42 6 83 13 91 15 36 9 360 -5 418 -18z m-760 -109 c-17 -29 -52 -88
-76 -132 -69 -119 -126 -144 -188 -82 -55 55 -44 110 32 157 52 32 226 109
246 109 15 0 13 -8 -14 -52z m1128 -13 c114 -55 154 -89 154 -131 0 -37 -22
-74 -51 -90 -69 -35 -101 -11 -193 145 -42 72 -76 133 -76 137 0 13 57 -8 166
-61z"/>
</g>
</svg>
